<?xml version="1.0" encoding="iso-8859-1"?>
<!-- Generator: Adobe Illustrator 19.0.0, SVG Export Plug-In . SVG Version: 6.00 Build 0)  -->
<svg version="1.1" id="Layer_1" xmlns="http://www.w3.org/2000/svg" xmlns:xlink="http://www.w3.org/1999/xlink" x="0px" y="0px"
	 viewBox="0 0 488 488" style="enable-background:new 0 0 488 488;" xml:space="preserve">
<g transform="translate(0 -540.36)">
	<g>
		<g>
			<path d="M244,601.36c-100.9,0-183,82.1-183,183s82.1,183,183,183s183-82.1,183-183S344.9,601.36,244,601.36z M244,947.36
				c-89.9,0-163-73.1-163-163s73.1-163,163-163s163,73.1,163,163S333.9,947.36,244,947.36z"/>
			<path d="M416.4,611.96c-46.2-46.2-107.4-71.6-172.4-71.6s-126.2,25.4-172.4,71.6C25.4,658.16,0,719.36,0,784.36
				s25.4,126.2,71.6,172.4c46.2,46.2,107.4,71.6,172.4,71.6s126.2-25.4,172.4-71.6s71.6-107.4,71.6-172.4S462.6,658.16,416.4,611.96
				z M244,1008.36c-123.5,0-224-100.5-224-224s100.5-224,224-224s224,100.5,224,224S367.5,1008.36,244,1008.36z"/>
			<path d="M333.7,713.56l-116.6,20.6c-2.7,0.5-5.1,2.1-6.6,4.4l-66.3,101.4c-2.2,3.3-2.2,7.7,0,11c1.9,2.8,5,4.5,8.3,4.5
				c0.6,0,1.2-0.1,1.7-0.2l116.6-20.6c2.7-0.5,5.1-2.1,6.6-4.4l66.3-101.4c2.3-3.3,2.3-7.7,0.1-11
				C341.6,714.56,337.6,712.86,333.7,713.56z M173.6,831.46l45-68.9l34.3,54.9L173.6,831.46z M269.4,806.16l-34.3-54.9l79.3-14
				L269.4,806.16z"/>
		</g>
	</g>
</g>
<g>
</g>
<g>
</g>
<g>
</g>
<g>
</g>
<g>
</g>
<g>
</g>
<g>
</g>
<g>
</g>
<g>
</g>
<g>
</g>
<g>
</g>
<g>
</g>
<g>
</g>
<g>
</g>
<g>
</g>
</svg>
